<svg width="117" height="94" viewBox="0 0 117 94" fill="none" xmlns="http://www.w3.org/2000/svg">
<path d="M0 80.064C0 78.72 0.264 77.528 0.792 76.488C1.336 75.448 2.072 74.648 3 74.088C3.928 73.528 4.96 73.248 6.096 73.248C6.96 73.248 7.784 73.44 8.568 73.824C9.352 74.192 9.976 74.688 10.44 75.312V69H13.848V86.76H10.44V84.792C10.024 85.448 9.44 85.976 8.688 86.376C7.936 86.776 7.064 86.976 6.072 86.976C4.952 86.976 3.928 86.688 3 86.112C2.072 85.536 1.336 84.728 0.792 83.688C0.264 82.632 0 81.424 0 80.064ZM10.464 80.112C10.464 79.296 10.304 78.6 9.984 78.024C9.664 77.432 9.232 76.984 8.688 76.68C8.144 76.36 7.56 76.2 6.936 76.2C6.312 76.2 5.736 76.352 5.208 76.656C4.68 76.96 4.248 77.408 3.912 78C3.592 78.576 3.432 79.264 3.432 80.064C3.432 80.864 3.592 81.568 3.912 82.176C4.248 82.768 4.68 83.224 5.208 83.544C5.752 83.864 6.328 84.024 6.936 84.024C7.56 84.024 8.144 83.872 8.688 83.568C9.232 83.248 9.664 82.8 9.984 82.224C10.304 81.632 10.464 80.928 10.464 80.112Z" fill="white"/>
<path d="M21.0416 76.224V82.656C21.0416 83.104 21.1456 83.432 21.3536 83.64C21.5776 83.832 21.9456 83.928 22.4576 83.928H24.0176V86.76H21.9056C19.0736 86.76 17.6576 85.384 17.6576 82.632V76.224H16.0736V73.464H17.6576V70.176H21.0416V73.464H24.0176V76.224H21.0416Z" fill="white"/>
<path d="M48.6651 73.272C50.2971 73.272 51.6091 73.776 52.6011 74.784C53.6091 75.776 54.1131 77.168 54.1131 78.96V86.76H50.7531V79.416C50.7531 78.376 50.4891 77.584 49.9611 77.04C49.4331 76.48 48.7131 76.2 47.8011 76.2C46.8891 76.2 46.1611 76.48 45.6171 77.04C45.0891 77.584 44.8251 78.376 44.8251 79.416V86.76H41.4651V79.416C41.4651 78.376 41.2011 77.584 40.6731 77.04C40.1451 76.48 39.4251 76.2 38.5131 76.2C37.5851 76.2 36.8491 76.48 36.3051 77.04C35.7771 77.584 35.5131 78.376 35.5131 79.416V86.76H32.1531V73.464H35.5131V75.072C35.9451 74.512 36.4971 74.072 37.1691 73.752C37.8571 73.432 38.6091 73.272 39.4251 73.272C40.4651 73.272 41.3931 73.496 42.2091 73.944C43.0251 74.376 43.6571 75 44.1051 75.816C44.5371 75.048 45.1611 74.432 45.9771 73.968C46.8091 73.504 47.7051 73.272 48.6651 73.272Z" fill="white"/>
<path d="M63.2055 86.976C61.9255 86.976 60.7735 86.696 59.7495 86.136C58.7255 85.56 57.9175 84.752 57.3255 83.712C56.7495 82.672 56.4615 81.472 56.4615 80.112C56.4615 78.752 56.7575 77.552 57.3495 76.512C57.9575 75.472 58.7815 74.672 59.8215 74.112C60.8615 73.536 62.0215 73.248 63.3015 73.248C64.5815 73.248 65.7415 73.536 66.7815 74.112C67.8215 74.672 68.6375 75.472 69.2295 76.512C69.8375 77.552 70.1415 78.752 70.1415 80.112C70.1415 81.472 69.8295 82.672 69.2055 83.712C68.5975 84.752 67.7655 85.56 66.7095 86.136C65.6695 86.696 64.5015 86.976 63.2055 86.976ZM63.2055 84.048C63.8135 84.048 64.3815 83.904 64.9095 83.616C65.4535 83.312 65.8855 82.864 66.2055 82.272C66.5255 81.68 66.6855 80.96 66.6855 80.112C66.6855 78.848 66.3495 77.88 65.6775 77.208C65.0215 76.52 64.2135 76.176 63.2535 76.176C62.2935 76.176 61.4855 76.52 60.8295 77.208C60.1895 77.88 59.8695 78.848 59.8695 80.112C59.8695 81.376 60.1815 82.352 60.8055 83.04C61.4455 83.712 62.2455 84.048 63.2055 84.048Z" fill="white"/>
<path d="M79.9742 73.272C81.5582 73.272 82.8382 73.776 83.8142 74.784C84.7902 75.776 85.2782 77.168 85.2782 78.96V86.76H81.9182V79.416C81.9182 78.36 81.6542 77.552 81.1262 76.992C80.5982 76.416 79.8782 76.128 78.9662 76.128C78.0382 76.128 77.3022 76.416 76.7582 76.992C76.2302 77.552 75.9662 78.36 75.9662 79.416V86.76H72.6062V73.464H75.9662V75.12C76.4142 74.544 76.9822 74.096 77.6702 73.776C78.3742 73.44 79.1422 73.272 79.9742 73.272Z" fill="white"/>
<path d="M100.833 79.824C100.833 80.304 100.801 80.736 100.737 81.12H91.0174C91.0974 82.08 91.4334 82.832 92.0254 83.376C92.6174 83.92 93.3454 84.192 94.2094 84.192C95.4574 84.192 96.3454 83.656 96.8734 82.584H100.497C100.113 83.864 99.3774 84.92 98.2894 85.752C97.2014 86.568 95.8654 86.976 94.2814 86.976C93.0014 86.976 91.8494 86.696 90.8254 86.136C89.8174 85.56 89.0254 84.752 88.4494 83.712C87.8894 82.672 87.6094 81.472 87.6094 80.112C87.6094 78.736 87.8894 77.528 88.4494 76.488C89.0094 75.448 89.7934 74.648 90.8014 74.088C91.8094 73.528 92.9694 73.248 94.2814 73.248C95.5454 73.248 96.6734 73.52 97.6654 74.064C98.6734 74.608 99.4494 75.384 99.9934 76.392C100.553 77.384 100.833 78.528 100.833 79.824ZM97.3534 78.864C97.3374 78 97.0254 77.312 96.4174 76.8C95.8094 76.272 95.0654 76.008 94.1854 76.008C93.3534 76.008 92.6494 76.264 92.0734 76.776C91.5134 77.272 91.1694 77.968 91.0414 78.864H97.3534Z" fill="white"/>
<path d="M116.006 73.464L107.774 93.048H104.198L107.078 86.424L101.75 73.464H105.518L108.95 82.752L112.43 73.464H116.006Z" fill="white"/>
<g filter="url(#filter0_i)">
<rect x="43.2878" width="29.7732" height="56.2507" fill="#80C144"/>
</g>
<path d="M64.5741 18.0904C62.3247 16.068 59.3772 14.9981 56.2746 15.0777C53.172 15.1573 50.2857 16.3768 48.1474 18.5118C46.0092 20.6467 44.8749 23.4414 44.9534 26.3811C45.032 29.3207 46.3141 32.0534 48.5635 34.0758C50.8128 36.0983 53.7604 37.1681 56.8629 37.0885C59.9655 37.0089 62.8518 35.7894 64.9901 33.6544C67.1284 31.5195 68.2627 28.7248 68.1841 25.7851C68.1055 22.8455 66.8234 20.1128 64.5741 18.0904Z" fill="#004A24"/>
<g clip-path="url(#clip0)">
<path d="M56.7241 19.4714L57.0939 33.3068" stroke="#A7D292" stroke-linecap="round" stroke-linejoin="round"/>
<path d="M60.11 21.9018L55.132 22.0295C54.5159 22.0453 53.9312 22.2924 53.5066 22.7163C53.082 23.1403 52.8522 23.7064 52.8678 24.2902C52.8834 24.8739 53.1431 25.4275 53.5898 25.8291C54.0365 26.2307 54.6336 26.4475 55.2497 26.4317L58.5683 26.3465C59.1845 26.3307 59.7815 26.5475 60.2282 26.9491C60.6749 27.3507 60.9346 27.9043 60.9503 28.488C60.9659 29.0718 60.7361 29.6379 60.3114 30.0619C59.8868 30.4858 59.3021 30.7329 58.686 30.7487L53.0443 30.8934" stroke="#A7D292" stroke-linecap="round" stroke-linejoin="round"/>
</g>
<g filter="url(#filter1_i)">
<rect width="29.5603" height="56.6667" transform="matrix(0.809646 0.586919 -0.602716 0.797955 84.7431 3.90762)" fill="#80C144"/>
</g>
<g filter="url(#filter2_i)">
<rect width="29.6815" height="56.4306" transform="matrix(0.923347 -0.383965 0.397573 0.91757 9 14.0839)" fill="#80C144"/>
</g>
<path d="M91.5905 34.2229C90.9841 31.2915 89.2414 28.7286 86.6837 27.0065C84.1259 25.2843 81.0591 24.609 78.0482 25.1049C75.0374 25.6008 72.4429 27.2086 70.7427 29.6321C69.0425 32.0555 68.4402 35.0046 69.0465 37.936C69.6529 40.8674 71.3956 43.4303 73.9533 45.1524C76.5111 46.8746 79.5779 47.5499 82.5888 47.054C85.5996 46.5581 88.1941 44.9503 89.8943 42.5268C91.5945 40.1034 92.1968 37.1543 91.5905 34.2229Z" fill="#004A24"/>
<g clip-path="url(#clip1)">
<path d="M84.4111 30.8199L76.4092 42.2259" stroke="#A7D292" stroke-linecap="round" stroke-linejoin="round"/>
<path d="M85.6922 34.7359L81.5883 31.9727C81.0804 31.6307 80.4591 31.4939 79.8612 31.5924C79.2633 31.6909 78.7377 32.0166 78.4001 32.4978C78.0625 32.9791 77.9404 33.5765 78.0609 34.1586C78.1813 34.7407 78.5343 35.2599 79.0422 35.6019L81.7782 37.444C82.2861 37.786 82.6391 38.3051 82.7595 38.8873C82.8799 39.4694 82.7579 40.0668 82.4203 40.5481C82.0827 41.0293 81.5571 41.355 80.9592 41.4535C80.3613 41.552 79.74 41.4152 79.2321 41.0732L74.581 37.9416" stroke="#A7D292" stroke-linecap="round" stroke-linejoin="round"/>
</g>
<path d="M37.5005 22.7773C34.6754 21.7873 31.5811 21.9611 28.7876 23.2665C25.9941 24.572 23.8356 26.8529 22.71 29.6891C21.5844 32.5254 21.6263 35.5774 22.828 38.2829C24.0296 40.9884 26.2472 43.0236 29.0722 44.0137C31.8972 45.0037 34.9916 44.8299 37.7851 43.5244C40.5786 42.2189 42.737 39.938 43.8627 37.1018C44.9883 34.2656 44.9464 31.2136 43.7447 28.5081C42.5431 25.8025 40.3255 23.7673 37.5005 22.7773Z" fill="#004A24"/>
<g clip-path="url(#clip2)">
<path d="M30.8859 27.1785L36.5415 39.9121" stroke="#A7D292" stroke-linecap="round" stroke-linejoin="round"/>
<path d="M34.9023 28.0973L30.4202 30.1919C29.8654 30.4512 29.4282 30.9132 29.2046 31.4764C28.9811 32.0397 28.9896 32.6579 29.2282 33.1952C29.4669 33.7325 29.9161 34.1447 30.4771 34.3413C31.0381 34.5379 31.6649 34.5027 32.2197 34.2435L35.2078 32.8471C35.7625 32.5879 36.3893 32.5527 36.9503 32.7493C37.5113 32.9458 37.9606 33.3581 38.1992 33.8954C38.4378 34.4327 38.4463 35.0509 38.2228 35.6141C37.9992 36.1774 37.562 36.6394 37.0073 36.8987L31.9275 39.2726" stroke="#A7D292" stroke-linecap="round" stroke-linejoin="round"/>
</g>
<defs>
<filter id="filter0_i" x="43.2878" y="0" width="29.7732" height="60.2507" filterUnits="userSpaceOnUse" color-interpolation-filters="sRGB">
<feFlood flood-opacity="0" result="BackgroundImageFix"/>
<feBlend mode="normal" in="SourceGraphic" in2="BackgroundImageFix" result="shape"/>
<feColorMatrix in="SourceAlpha" type="matrix" values="0 0 0 0 0 0 0 0 0 0 0 0 0 0 0 0 0 0 127 0" result="hardAlpha"/>
<feOffset dy="4"/>
<feGaussianBlur stdDeviation="2"/>
<feComposite in2="hardAlpha" operator="arithmetic" k2="-1" k3="1"/>
<feColorMatrix type="matrix" values="0 0 0 0 0 0 0 0 0 0 0 0 0 0 0 0 0 0 0.25 0"/>
<feBlend mode="normal" in2="shape" result="effect1_innerShadow"/>
</filter>
<filter id="filter1_i" x="50.5891" y="3.90762" width="58.0873" height="66.567" filterUnits="userSpaceOnUse" color-interpolation-filters="sRGB">
<feFlood flood-opacity="0" result="BackgroundImageFix"/>
<feBlend mode="normal" in="SourceGraphic" in2="BackgroundImageFix" result="shape"/>
<feColorMatrix in="SourceAlpha" type="matrix" values="0 0 0 0 0 0 0 0 0 0 0 0 0 0 0 0 0 0 127 0" result="hardAlpha"/>
<feOffset dy="4"/>
<feGaussianBlur stdDeviation="2"/>
<feComposite in2="hardAlpha" operator="arithmetic" k2="-1" k3="1"/>
<feColorMatrix type="matrix" values="0 0 0 0 0 0 0 0 0 0 0 0 0 0 0 0 0 0 0.25 0"/>
<feBlend mode="normal" in2="shape" result="effect1_innerShadow"/>
</filter>
<filter id="filter2_i" x="9" y="2.68722" width="49.8416" height="67.1757" filterUnits="userSpaceOnUse" color-interpolation-filters="sRGB">
<feFlood flood-opacity="0" result="BackgroundImageFix"/>
<feBlend mode="normal" in="SourceGraphic" in2="BackgroundImageFix" result="shape"/>
<feColorMatrix in="SourceAlpha" type="matrix" values="0 0 0 0 0 0 0 0 0 0 0 0 0 0 0 0 0 0 127 0" result="hardAlpha"/>
<feOffset dy="4"/>
<feGaussianBlur stdDeviation="2"/>
<feComposite in2="hardAlpha" operator="arithmetic" k2="-1" k3="1"/>
<feColorMatrix type="matrix" values="0 0 0 0 0 0 0 0 0 0 0 0 0 0 0 0 0 0 0.25 0"/>
<feBlend mode="normal" in2="shape" result="effect1_innerShadow"/>
</filter>
<clipPath id="clip0">
<rect width="15.9349" height="15.0985" fill="white" transform="matrix(0.999671 -0.0256448 0.0267201 0.999643 48.7425 19.0468)"/>
</clipPath>
<clipPath id="clip1">
<rect width="15.8318" height="15.1996" fill="white" transform="matrix(0.829502 0.558504 -0.574315 0.818635 78.2086 25.8804)"/>
</clipPath>
<clipPath id="clip2">
<rect width="15.8318" height="15.1996" fill="white" transform="matrix(0.905956 -0.423371 0.405913 0.913912 23.4574 29.9511)"/>
</clipPath>
</defs>
</svg>
