<svg width="32" height="32" viewBox="0 0 32 32" fill="none" xmlns="http://www.w3.org/2000/svg">
<path d="M26.6418 4.57097C23.6942 1.62331 19.775 0 15.6064 0C11.4378 0 7.51863 1.62331 4.57097 4.57097C1.62331 7.51863 0 11.4378 0 15.6064C0 19.775 1.62337 23.6941 4.57097 26.6418C7.51857 29.5896 11.4378 31.2128 15.6064 31.2128C19.775 31.2128 23.6942 29.5895 26.6418 26.6418C29.5895 23.6942 31.2128 19.775 31.2128 15.6064C31.2128 11.4378 29.5894 7.51869 26.6418 4.57097Z" fill="white"/>
<path d="M16 4.08333V27.9167" stroke="#33CC95" stroke-width="2" stroke-linecap="round" stroke-linejoin="round"/>
<path d="M21 8.41667H13.5C12.5717 8.41667 11.6815 8.81615 11.0251 9.52723C10.3687 10.2383 10 11.2027 10 12.2083C10 13.214 10.3687 14.1784 11.0251 14.8895C11.6815 15.6005 12.5717 16 13.5 16H18.5C19.4283 16 20.3185 16.3995 20.9749 17.1106C21.6313 17.8216 22 18.7861 22 19.7917C22 20.7973 21.6313 21.7617 20.9749 22.4728C20.3185 23.1839 19.4283 23.5833 18.5 23.5833H10" stroke="#33CC95" stroke-width="2" stroke-linecap="round" stroke-linejoin="round"/>
</svg>
